<svg width="1512" height="1215" viewBox="0 0 1512 1215" fill="none" xmlns="http://www.w3.org/2000/svg">
<g clip-path="url(#clip0_1045_870)">
<g filter="url(#filter0_f_1045_870)">
<ellipse cx="-141.194" cy="832.5" rx="410.5" ry="224.5" fill="url(#paint0_linear_1045_870)"/>
</g>
<g filter="url(#filter1_f_1045_870)">
<circle cx="1604.31" cy="402" r="258" fill="url(#paint1_linear_1045_870)"/>
</g>
<rect x="-489.694" y="1131.72" width="785.07" height="100" rx="50" transform="rotate(-34.0616 -489.694 1131.72)" fill="#F9F2FF" fill-opacity="0.3"/>
<rect x="-551.694" y="985.72" width="785.07" height="100" rx="50" transform="rotate(-34.0616 -551.694 985.72)" fill="#F9F2FF" fill-opacity="0.3"/>
<rect x="1357.31" y="394.705" width="785.07" height="100" rx="50" transform="rotate(-34.0616 1357.31 394.705)" fill="#F9F2FF" fill-opacity="0.39"/>
<rect x="1301.31" y="596.718" width="785.07" height="100" rx="50" transform="rotate(-34.0616 1301.31 596.718)" fill="#F9F2FF" fill-opacity="0.39"/>
</g>
<defs>
<filter id="filter0_f_1045_870" x="-751.694" y="408" width="1221" height="849" filterUnits="userSpaceOnUse" color-interpolation-filters="sRGB">
<feFlood flood-opacity="0" result="BackgroundImageFix"/>
<feBlend mode="normal" in="SourceGraphic" in2="BackgroundImageFix" result="shape"/>
<feGaussianBlur stdDeviation="100" result="effect1_foregroundBlur_1045_870"/>
</filter>
<filter id="filter1_f_1045_870" x="1146.31" y="-55.9995" width="916" height="916" filterUnits="userSpaceOnUse" color-interpolation-filters="sRGB">
<feFlood flood-opacity="0" result="BackgroundImageFix"/>
<feBlend mode="normal" in="SourceGraphic" in2="BackgroundImageFix" result="shape"/>
<feGaussianBlur stdDeviation="100" result="effect1_foregroundBlur_1045_870"/>
</filter>
<linearGradient id="paint0_linear_1045_870" x1="269.306" y1="832.5" x2="-551.694" y2="832.5" gradientUnits="userSpaceOnUse">
<stop stop-color="#5EEBD1" stop-opacity="0.5"/>
<stop offset="1" stop-color="#D2D1FF"/>
</linearGradient>
<linearGradient id="paint1_linear_1045_870" x1="1862.31" y1="402" x2="1346.31" y2="402" gradientUnits="userSpaceOnUse">
<stop stop-color="#D7C0FF" stop-opacity="0.3"/>
<stop offset="1" stop-color="#D2D1FF"/>
</linearGradient>
<clipPath id="clip0_1045_870">
<rect width="1512" height="1259.56" fill="white" transform="translate(0 -45)"/>
</clipPath>
</defs>
</svg>
