<svg width="1512" height="1168" viewBox="0 0 1512 1168" fill="none" xmlns="http://www.w3.org/2000/svg">
<rect x="723.697" y="398.094" width="785.07" height="100" rx="50" transform="rotate(-34.0616 723.697 398.094)" fill="#F9F2FF" fill-opacity="0.39"/>
<rect x="1146.91" y="270.705" width="785.07" height="100" rx="50" transform="rotate(-34.0616 1146.91 270.705)" fill="#F9F2FF" fill-opacity="0.39"/>
<rect x="999.914" y="536.742" width="785.07" height="100" rx="50" transform="rotate(-34.0616 999.914 536.742)" fill="#F9F2FF" fill-opacity="0.39"/>
<g filter="url(#filter0_f_1045_872)">
<circle cx="70.6973" cy="930" r="258" fill="url(#paint0_linear_1045_872)"/>
</g>
<rect x="-330.303" y="1123.71" width="785.07" height="100" rx="50" transform="rotate(-34.0616 -330.303 1123.71)" fill="#F9F2FF" fill-opacity="0.3"/>
<rect x="-341.303" y="971.705" width="785.07" height="100" rx="50" transform="rotate(-34.0616 -341.303 971.705)" fill="#F9F2FF" fill-opacity="0.3"/>
<rect x="-301.303" y="774.705" width="785.07" height="100" rx="50" transform="rotate(-34.0616 -301.303 774.705)" fill="#F9F2FF" fill-opacity="0.3"/>
<g filter="url(#filter1_f_1045_872)">
<ellipse cx="1122.2" cy="1008.5" rx="410.5" ry="295.5" fill="url(#paint1_linear_1045_872)"/>
</g>
<defs>
<filter id="filter0_f_1045_872" x="-387.303" y="472" width="916" height="916" filterUnits="userSpaceOnUse" color-interpolation-filters="sRGB">
<feFlood flood-opacity="0" result="BackgroundImageFix"/>
<feBlend mode="normal" in="SourceGraphic" in2="BackgroundImageFix" result="shape"/>
<feGaussianBlur stdDeviation="100" result="effect1_foregroundBlur_1045_872"/>
</filter>
<filter id="filter1_f_1045_872" x="511.697" y="513" width="1221" height="991" filterUnits="userSpaceOnUse" color-interpolation-filters="sRGB">
<feFlood flood-opacity="0" result="BackgroundImageFix"/>
<feBlend mode="normal" in="SourceGraphic" in2="BackgroundImageFix" result="shape"/>
<feGaussianBlur stdDeviation="100" result="effect1_foregroundBlur_1045_872"/>
</filter>
<linearGradient id="paint0_linear_1045_872" x1="328.697" y1="930" x2="-187.303" y2="930" gradientUnits="userSpaceOnUse">
<stop stop-color="#D7C0FF" stop-opacity="0.3"/>
<stop offset="1" stop-color="#D2D1FF"/>
</linearGradient>
<linearGradient id="paint1_linear_1045_872" x1="1532.7" y1="1008.5" x2="711.697" y2="1008.5" gradientUnits="userSpaceOnUse">
<stop stop-color="#5EEBD1" stop-opacity="0.5"/>
<stop offset="1" stop-color="#D2D1FF"/>
</linearGradient>
</defs>
</svg>
