<svg width="32" height="32" viewBox="0 0 32 32" fill="none" xmlns="http://www.w3.org/2000/svg">
<path d="M4.00016 29.3335C3.26683 29.3335 2.63905 29.0724 2.11683 28.5502C1.59461 28.0279 1.3335 27.4002 1.3335 26.6668V12.0002H4.00016V26.6668H26.6668V29.3335H4.00016ZM9.3335 24.0002C8.60016 24.0002 7.97239 23.7391 7.45016 23.2168C6.92794 22.6946 6.66683 22.0668 6.66683 21.3335V6.66683H13.3335V4.00016C13.3335 3.26683 13.5946 2.63905 14.1168 2.11683C14.6391 1.59461 15.2668 1.3335 16.0002 1.3335H21.3335C22.0668 1.3335 22.6946 1.59461 23.2168 2.11683C23.7391 2.63905 24.0002 3.26683 24.0002 4.00016V6.66683H30.6668V21.3335C30.6668 22.0668 30.4057 22.6946 29.8835 23.2168C29.3613 23.7391 28.7335 24.0002 28.0002 24.0002H9.3335ZM9.3335 21.3335H28.0002V9.3335H9.3335V21.3335ZM16.0002 6.66683H21.3335V4.00016H16.0002V6.66683Z" fill="url(#paint0_linear_1018_976)"/>
<defs>
<linearGradient id="paint0_linear_1018_976" x1="16.0002" y1="1.3335" x2="16.0002" y2="29.3335" gradientUnits="userSpaceOnUse">
<stop stop-color="#1DD1CB"/>
<stop offset="1" stop-color="#A629FF"/>
</linearGradient>
</defs>
</svg>
