<svg width="32" height="32" viewBox="0 0 32 32" fill="none" xmlns="http://www.w3.org/2000/svg">
<path d="M5.3335 19.9998C4.22239 19.9998 3.27794 19.6109 2.50016 18.8332C1.72238 18.0554 1.3335 17.1109 1.3335 15.9998C1.3335 14.8887 1.72238 13.9443 2.50016 13.1665C3.27794 12.3887 4.22239 11.9998 5.3335 11.9998V9.33317C5.3335 8.59984 5.59461 7.97206 6.11683 7.44984C6.63905 6.92761 7.26683 6.6665 8.00016 6.6665H12.0002C12.0002 5.55539 12.3891 4.61095 13.1668 3.83317C13.9446 3.05539 14.8891 2.6665 16.0002 2.6665C17.1113 2.6665 18.0557 3.05539 18.8335 3.83317C19.6113 4.61095 20.0002 5.55539 20.0002 6.6665H24.0002C24.7335 6.6665 25.3613 6.92761 25.8835 7.44984C26.4057 7.97206 26.6668 8.59984 26.6668 9.33317V11.9998C27.7779 11.9998 28.7224 12.3887 29.5002 13.1665C30.2779 13.9443 30.6668 14.8887 30.6668 15.9998C30.6668 17.1109 30.2779 18.0554 29.5002 18.8332C28.7224 19.6109 27.7779 19.9998 26.6668 19.9998V25.3332C26.6668 26.0665 26.4057 26.6943 25.8835 27.2165C25.3613 27.7387 24.7335 27.9998 24.0002 27.9998H8.00016C7.26683 27.9998 6.63905 27.7387 6.11683 27.2165C5.59461 26.6943 5.3335 26.0665 5.3335 25.3332V19.9998ZM12.0002 17.3332C12.5557 17.3332 13.0279 17.1387 13.4168 16.7498C13.8057 16.3609 14.0002 15.8887 14.0002 15.3332C14.0002 14.7776 13.8057 14.3054 13.4168 13.9165C13.0279 13.5276 12.5557 13.3332 12.0002 13.3332C11.4446 13.3332 10.9724 13.5276 10.5835 13.9165C10.1946 14.3054 10.0002 14.7776 10.0002 15.3332C10.0002 15.8887 10.1946 16.3609 10.5835 16.7498C10.9724 17.1387 11.4446 17.3332 12.0002 17.3332ZM20.0002 17.3332C20.5557 17.3332 21.0279 17.1387 21.4168 16.7498C21.8057 16.3609 22.0002 15.8887 22.0002 15.3332C22.0002 14.7776 21.8057 14.3054 21.4168 13.9165C21.0279 13.5276 20.5557 13.3332 20.0002 13.3332C19.4446 13.3332 18.9724 13.5276 18.5835 13.9165C18.1946 14.3054 18.0002 14.7776 18.0002 15.3332C18.0002 15.8887 18.1946 16.3609 18.5835 16.7498C18.9724 17.1387 19.4446 17.3332 20.0002 17.3332ZM10.6668 22.6665H21.3335V19.9998H10.6668V22.6665ZM8.00016 25.3332H24.0002V9.33317H8.00016V25.3332Z" fill="url(#paint0_linear_1018_980)"/>
<defs>
<linearGradient id="paint0_linear_1018_980" x1="16.0002" y1="2.6665" x2="16.0002" y2="27.9998" gradientUnits="userSpaceOnUse">
<stop stop-color="#1DD1CB"/>
<stop offset="1" stop-color="#A629FF"/>
</linearGradient>
</defs>
</svg>
