<svg width="32" height="32" viewBox="0 0 32 32" fill="none" xmlns="http://www.w3.org/2000/svg">
<path d="M22.2 17.3333L14.6667 9.79994L22.2 2.2666L29.7333 9.79994L22.2 17.3333ZM4 14.6666V3.99994H14.6667V14.6666H4ZM17.3333 27.9999V17.3333H28V27.9999H17.3333ZM4 27.9999V17.3333H14.6667V27.9999H4ZM6.66667 11.9999H12V6.6666H6.66667V11.9999ZM22.2333 13.5999L26 9.83327L22.2333 6.0666L18.4667 9.83327L22.2333 13.5999ZM20 25.3333H25.3333V19.9999H20V25.3333ZM6.66667 25.3333H12V19.9999H6.66667V25.3333Z" fill="url(#paint0_linear_1018_967)"/>
<defs>
<linearGradient id="paint0_linear_1018_967" x1="16.8667" y1="2.2666" x2="16.8667" y2="27.9999" gradientUnits="userSpaceOnUse">
<stop stop-color="#1DD1CB"/>
<stop offset="1" stop-color="#A629FF"/>
</linearGradient>
</defs>
</svg>
